{
  "accessors": [
    {
      "bufferView": 2,
      "componentType": 5126,
      "count": 4814,
      "max": [
        1.8552600145339966,
        1.0902600288391113,
        2.2804999351501465
      ],
      "min": [
        0,
        0.069021999835968018,
        0
      ],
      "type": "VEC3"
    },
    {
      "bufferView": 2,
      "byteOffset": 57768,
      "componentType": 5126,
      "count": 4814,
      "max": [
        0.99935585260391235,
        0.99991661310195923,
        0.99820065498352051
      ],
      "min": [
        -0.9993557333946228,
        -0.99994564056396484,
        -0.99930745363235474
      ],
      "type": "VEC3"
    },
    {
      "bufferView": 3,
      "componentType": 5126,
      "count": 4814,
      "max": [
        0.99952918291091919,
        0.99993604421615601,
        0.999916672706604,
        1
      ],
      "min": [
        -0.99952924251556396,
        -0.99971121549606323,
        -0.99994575977325439,
        -1
      ],
      "type": "VEC4"
    },
    {
      "bufferView": 1,
      "componentType": 5126,
      "count": 4814,
      "max": [
        0.98819601535797119,
        0.98684102296829224
      ],
      "min": [
        0,
        0.01306500006467104
      ],
      "type": "VEC2"
    },
    {
      "bufferView": 0,
      "componentType": 5125,
      "count": 25926,
      "max": [
        4813
      ],
      "min": [
        0
      ],
      "type": "SCALAR"
    },
    {
      "bufferView": 2,
      "byteOffset": 115536,
      "componentType": 5126,
      "count": 662,
      "max": [
        1.1939870119094849,
        0.75730705261230469,
        2.2960610389709473
      ],
      "min": [
        0.6806800365447998,
        0,
        1.9143009185791016
      ],
      "type": "VEC3"
    },
    {
      "bufferView": 2,
      "byteOffset": 123480,
      "componentType": 5126,
      "count": 662,
      "max": [
        0.99943464994430542,
        0.99270474910736084,
        0.9995301365852356
      ],
      "min": [
        -0.99799209833145142,
        -0.94371110200881958,
        -0.99968433380126953
      ],
      "type": "VEC3"
    },
    {
      "bufferView": 3,
      "byteOffset": 77024,
      "componentType": 5126,
      "count": 662,
      "max": [
        0.99706149101257324,
        0.99263930320739746,
        0.98239535093307495,
        1
      ],
      "min": [
        -0.99695891141891479,
        -0.99483829736709595,
        -0.9994584321975708,
        1
      ],
      "type": "VEC4"
    },
    {
      "bufferView": 1,
      "byteOffset": 38512,
      "componentType": 5126,
      "count": 662,
      "max": [
        0.99220997095108032,
        0.99079602956771851
      ],
      "min": [
        0.71353697776794434,
        0.43081200122833252
      ],
      "type": "VEC2"
    },
    {
      "bufferView": 0,
      "byteOffset": 103704,
      "componentType": 5125,
      "count": 3714,
      "max": [
        661
      ],
      "min": [
        0
      ],
      "type": "SCALAR"
    }
  ],
  "asset": {
    "extras": {
      "author": "Snapped Celery (https://sketchfab.com/snappedcelery)",
      "license": "CC-BY-NC-4.0 (http://creativecommons.org/licenses/by-nc/4.0/)",
      "source": "https://sketchfab.com/models/62ab2e16d0b44bf4bfa070ea50f97000",
      "title": "Gamejam character - Trump"
    },
    "generator": "Sketchfab-3.19.6",
    "version": "2.0"
  },
  "bufferViews": [
    {
      "buffer": 0,
      "byteLength": 118560,
      "byteOffset": 0,
      "name": "floatBufferViews",
      "target": 34963
    },
    {
      "buffer": 0,
      "byteLength": 43808,
      "byteOffset": 118560,
      "byteStride": 8,
      "name": "floatBufferViews",
      "target": 34962
    },
    {
      "buffer": 0,
      "byteLength": 131424,
      "byteOffset": 162368,
      "byteStride": 12,
      "name": "floatBufferViews",
      "target": 34962
    },
    {
      "buffer": 0,
      "byteLength": 87616,
      "byteOffset": 293792,
      "byteStride": 16,
      "name": "floatBufferViews",
      "target": 34962
    }
  ],
  "buffers": [
    {
      "byteLength": 381408,
      "uri": "scene.bin"
    }
  ],
  "images": [
    {
      "uri": "textures/initialShadingGroup_baseColor.png"
    },
    {
      "uri": "textures/initialShadingGroup_normal.png"
    },
    {
      "uri": "textures/initialShadingGroup_metallicRoughness.png"
    }
  ],
  "materials": [
    {
      "doubleSided": true,
      "name": "initialShadingGroup",
      "normalTexture": {
        "index": 1,
        "scale": 1,
        "texCoord": 0
      },
      "occlusionTexture": {
        "index": 2,
        "strength": 0.75649899659999997,
        "texCoord": 0
      },
      "pbrMetallicRoughness": {
        "baseColorFactor": [
          1,
          1,
          1,
          1
        ],
        "baseColorTexture": {
          "index": 0,
          "texCoord": 0
        },
        "metallicFactor": 0,
        "roughnessFactor": 0.36299785880000002
      }
    }
  ],
  "meshes": [
    {
      "primitives": [
        {
          "attributes": {
            "NORMAL": 1,
            "POSITION": 0,
            "TANGENT": 2,
            "TEXCOORD_0": 3
          },
          "indices": 4,
          "material": 0,
          "mode": 4
        }
      ]
    },
    {
      "primitives": [
        {
          "attributes": {
            "NORMAL": 6,
            "POSITION": 5,
            "TANGENT": 7,
            "TEXCOORD_0": 8
          },
          "indices": 9,
          "material": 0,
          "mode": 4
        }
      ]
    }
  ],
  "nodes": [
    {
      "children": [
        1
      ],
      "name": "RootNode (gltf orientation matrix)",
      "rotation": [
        -0.70710678118654746,
        -0,
        -0,
        0.70710678118654757
      ]
    },
    {
      "children": [
        2
      ],
      "name": "RootNode (model correction matrix)"
    },
    {
      "children": [
        3
      ],
      "matrix": [
        1,
        0,
        0,
        0,
        0,
        1,
        0,
        0,
        0,
        0,
        1,
        0,
        -0.92763000726699829,
        -0.93153202533721924,
        -0.045012999325990677,
        1
      ],
      "name": "Trump.obj.cleaner.gles"
    },
    {
      "children": [
        4,
        5
      ],
      "name": ""
    },
    {
      "mesh": 0,
      "name": ""
    },
    {
      "mesh": 1,
      "name": ""
    }
  ],
  "samplers": [
    {
      "magFilter": 9729,
      "minFilter": 9987,
      "wrapS": 10497,
      "wrapT": 10497
    }
  ],
  "scene": 0,
  "scenes": [
    {
      "name": "OSG_Scene",
      "nodes": [
        0
      ]
    }
  ],
  "textures": [
    {
      "sampler": 0,
      "source": 0
    },
    {
      "sampler": 0,
      "source": 1
    },
    {
      "sampler": 0,
      "source": 2
    }
  ]
}

